HIERARCHY
ROOT hip
{
  OFFSET 0.00112043 5.09927 -9.65472
  CHANNELS 6 Xposition Yposition Zposition Zrotation Xrotation Yrotation
  JOINT abdomen
  {
    OFFSET 0 -1.186 -1.5018
    CHANNELS 3 Zrotation Xrotation Yrotation
    JOINT abdomen2
    {
      OFFSET 0 9.964 0.2134
      CHANNELS 3 Zrotation Xrotation Yrotation
      JOINT chest
      {
        OFFSET 0 13.134 -3.2573
        CHANNELS 3 Zrotation Xrotation Yrotation
        JOINT neck
        {
          OFFSET 0 20.686 -1.6905
          CHANNELS 3 Zrotation Xrotation Yrotation
          JOINT head
          {
            OFFSET 0 7.238 -0.1237
            CHANNELS 3 Zrotation Xrotation Yrotation
            End Site
            {
              OFFSET 0 0 0
            }
          }
        }
        JOINT lCollar
        {
          OFFSET 1.7069 20.075 5.0056
          CHANNELS 3 Zrotation Xrotation Yrotation
          JOINT lShldr
          {
            OFFSET 13.6458 -0.047 -4.849
            CHANNELS 3 Zrotation Xrotation Yrotation
            JOINT lForeArm
            {
              OFFSET 28.3255 -0.9759 2.2888
              CHANNELS 3 Zrotation Xrotation Yrotation
              JOINT lHand
              {
                OFFSET 22.1583 -0.53 10.8316
                CHANNELS 3 Zrotation Xrotation Yrotation
                JOINT lThumb1
                {
                  OFFSET 0.786 0.112 2.5817
                  CHANNELS 3 Zrotation Xrotation Yrotation
                  JOINT lThumb2
                  {
                    OFFSET 0.3601 -0.878 4.2331
                    CHANNELS 3 Zrotation Xrotation Yrotation
                    JOINT lThumb2_End
                    {
                      OFFSET 1.8127 -1.216 2.2227
                      CHANNELS 3 Zrotation Xrotation Yrotation
                      End Site
                      {
                        OFFSET 0.0181 -0.0122 0.0222
                      }
                    }
                  }
                }
                JOINT lCarpal1
                {
                  OFFSET 0.9571 1.114 1.7695
                  CHANNELS 3 Zrotation Xrotation Yrotation
                  JOINT lIndex1
                  {
                    OFFSET 4.1246 0.487 4.1451
                    CHANNELS 3 Zrotation Xrotation Yrotation
                    JOINT lIndex2
                    {
                      OFFSET 3.4052 -1.454 2.7682
                      CHANNELS 3 Zrotation Xrotation Yrotation
                      JOINT lIndex2_End
                      {
                        OFFSET 1.4531 -1.795 1.2713
                        CHANNELS 3 Zrotation Xrotation Yrotation
                        End Site
                        {
                          OFFSET 0.0145 -0.0179 0.0127
                        }
                      }
                    }
                  }
                  JOINT lMid1
                  {
                    OFFSET 5.6954 0.21 2.1184
                    CHANNELS 3 Zrotation Xrotation Yrotation
                    JOINT lMid2
                    {
                      OFFSET 3.9766 -1.54 2.3863
                      CHANNELS 3 Zrotation Xrotation Yrotation
                      JOINT lMid2_End
                      {
                        OFFSET 1.4042 -1.926 1.125
                        CHANNELS 3 Zrotation Xrotation Yrotation
                        End Site
                        {
                          OFFSET 0.014 -0.0193 0.0113
                        }
                      }
                    }
                  }
                }
                JOINT lCarpal2
                {
                  OFFSET 2.0956 0.66 -0.3894
                  CHANNELS 3 Zrotation Xrotation Yrotation
                  JOINT lRing1
                  {
                    OFFSET 5.0395 -0.09 2.4971
                    CHANNELS 3 Zrotation Xrotation Yrotation
                    JOINT lRing2
                    {
                      OFFSET 3.7921 -1.552 1.4806
                      CHANNELS 3 Zrotation Xrotation Yrotation
                      JOINT lRing2_End
                      {
                        OFFSET 1.4655 -1.808 0.9609
                        CHANNELS 3 Zrotation Xrotation Yrotation
                        End Site
                        {
                          OFFSET 0.0147 -0.0181 0.0096
                        }
                      }
                    }
                  }
                  JOINT lPinky1
                  {
                    OFFSET 4.9141 -1.269 0.3591
                    CHANNELS 3 Zrotation Xrotation Yrotation
                    JOINT lPinky2
                    {
                      OFFSET 3.1477 -1.685 0.8462
                      CHANNELS 3 Zrotation Xrotation Yrotation
                      JOINT lPinky2_End
                      {
                        OFFSET 0.8055 -1.585 0.7955
                        CHANNELS 3 Zrotation Xrotation Yrotation
                        End Site
                        {
                          OFFSET 0.0081 -0.0158 0.008
                        }
                      }
                    }
                  }
                }
              }
            }
          }
        }
        JOINT rCollar
        {
          OFFSET -1.7069 20.075 5.0056
          CHANNELS 3 Zrotation Xrotation Yrotation
          JOINT rShldr
          {
            OFFSET -13.6458 -0.047 -4.849
            CHANNELS 3 Zrotation Xrotation Yrotation
            JOINT rForeArm
            {
              OFFSET -28.3255 -0.9759 2.2888
              CHANNELS 3 Zrotation Xrotation Yrotation
              JOINT rHand
              {
                OFFSET -22.1583 -0.53 10.8316
                CHANNELS 3 Zrotation Xrotation Yrotation
                JOINT rThumb1
                {
                  OFFSET -0.786 0.112 2.5817
                  CHANNELS 3 Zrotation Xrotation Yrotation
                  JOINT rThumb2
                  {
                    OFFSET -0.3601 -0.878 4.2331
                    CHANNELS 3 Zrotation Xrotation Yrotation
                    JOINT rThumb2_End
                    {
                      OFFSET -1.8127 -1.216 2.2227
                      CHANNELS 3 Zrotation Xrotation Yrotation
                      End Site
                      {
                        OFFSET -0.0181 -0.0122 0.0222
                      }
                    }
                  }
                }
                JOINT rCarpal1
                {
                  OFFSET -0.9571 1.114 1.7695
                  CHANNELS 3 Zrotation Xrotation Yrotation
                  JOINT rIndex1
                  {
                    OFFSET -4.1246 0.487 4.1451
                    CHANNELS 3 Zrotation Xrotation Yrotation
                    JOINT rIndex2
                    {
                      OFFSET -3.4052 -1.454 2.7682
                      CHANNELS 3 Zrotation Xrotation Yrotation
                      JOINT rIndex2_End
                      {
                        OFFSET -1.4531 -1.795 1.2713
                        CHANNELS 3 Zrotation Xrotation Yrotation
                        End Site
                        {
                          OFFSET -0.0145 -0.018 0.0127
                        }
                      }
                    }
                  }
                  JOINT rMid1
                  {
                    OFFSET -5.6954 0.21 2.1184
                    CHANNELS 3 Zrotation Xrotation Yrotation
                    JOINT rMid2
                    {
                      OFFSET -3.9766 -1.54 2.3863
                      CHANNELS 3 Zrotation Xrotation Yrotation
                      JOINT rMid2_End
                      {
                        OFFSET -1.4042 -1.926 1.125
                        CHANNELS 3 Zrotation Xrotation Yrotation
                        End Site
                        {
                          OFFSET -0.014 -0.0193 0.0113
                        }
                      }
                    }
                  }
                }
                JOINT rCarpal2
                {
                  OFFSET -2.0956 0.66 -0.3894
                  CHANNELS 3 Zrotation Xrotation Yrotation
                  JOINT rRing1
                  {
                    OFFSET -5.0395 -0.09 2.4971
                    CHANNELS 3 Zrotation Xrotation Yrotation
                    JOINT rRing2
                    {
                      OFFSET -3.7921 -1.552 1.4806
                      CHANNELS 3 Zrotation Xrotation Yrotation
                      JOINT rRing2_End
                      {
                        OFFSET -1.4655 -1.808 0.9609
                        CHANNELS 3 Zrotation Xrotation Yrotation
                        End Site
                        {
                          OFFSET -0.0147 -0.0181 0.0096
                        }
                      }
                    }
                  }
                  JOINT rPinky1
                  {
                    OFFSET -4.9141 -1.269 0.3592
                    CHANNELS 3 Zrotation Xrotation Yrotation
                    JOINT rPinky2
                    {
                      OFFSET -3.1477 -1.685 0.8462
                      CHANNELS 3 Zrotation Xrotation Yrotation
                      JOINT rPinky2_End
                      {
                        OFFSET -0.8055 -1.585 0.7955
                        CHANNELS 3 Zrotation Xrotation Yrotation
                        End Site
                        {
                          OFFSET -0.0081 -0.0158 0.008
                        }
                      }
                    }
                  }
                }
              }
            }
          }
        }
      }
    }
  }
  JOINT lThigh
  {
    OFFSET 8.367 -8.2066 0.5982
    CHANNELS 3 Zrotation Xrotation Yrotation
    JOINT lShin
    {
      OFFSET 2.1923 -43.463 -0.4932
      CHANNELS 3 Zrotation Xrotation Yrotation
      JOINT lFoot
      {
        OFFSET 0.7333 -45.8593 -2.6451
        CHANNELS 3 Zrotation Xrotation Yrotation
        End Site
        {
          OFFSET 2.6618 -4.2699 12.3931
        }
      }
    }
  }
  JOINT rThigh
  {
    OFFSET -8.367 -8.2066 0.5982
    CHANNELS 3 Zrotation Xrotation Yrotation
    JOINT rShin
    {
      OFFSET -2.1923 -43.463 -0.4931
      CHANNELS 3 Zrotation Xrotation Yrotation
      JOINT rFoot
      {
        OFFSET -0.7333 -45.8593 -2.6451
        CHANNELS 3 Zrotation Xrotation Yrotation
        End Site
        {
          OFFSET -2.6618 -4.2699 12.3931
        }
      }
    }
  }
}
MOTION
Frames:	4
Frame Time:	0.0333333
0.307348 -3.71204 -77.0475 -0 -63.0022 -0 0 2.79923 -0 0 5.59846 -0 0 5.59846 -0 0 30.9996 -0 -0.00167662 -9.63019 21.9989 -0 -1.52629e-005 -0 -74.8197 1.15231 46.745 1.83452 0.857234 -130.319 -4.05142e-006 1.34288e-006 -2.53485e-006 -4.69134e-006 2.53485e-006 1.34288e-006 5.95985e-007 3.19958e-007 -4.37138e-006 -4.69134e-006 2.53485e-006 1.34288e-006 1.59028e-015 -6.36111e-015 -9.54166e-015 -4.69134e-006 2.53485e-006 1.34288e-006 5.95985e-007 3.19958e-007 -4.37138e-006 -4.69134e-006 2.53485e-006 1.34288e-006 -4.69134e-006 2.53485e-006 1.34288e-006 5.95985e-007 3.19958e-007 -4.37138e-006 -4.69134e-006 2.53485e-006 1.34288e-006 1.59028e-015 -6.36111e-015 -9.54166e-015 -4.69134e-006 2.53485e-006 1.34288e-006 5.95985e-007 3.19958e-007 -4.37138e-006 -4.69134e-006 2.53485e-006 1.34288e-006 -4.69134e-006 2.53485e-006 1.34288e-006 5.95985e-007 3.19958e-007 -4.37138e-006 -4.69134e-006 2.53485e-006 1.34288e-006 5.38177e-008 -3.06184e-006 10.9996 70.2887 27.0547 20.6769 -1.42361 1.18051 85.2872 61.5184 -22.6642 -10.7136 1.59028e-015 -3.18055e-015 7.95139e-016 -0 0 8.74653e-015 1.59028e-015 0 1.59028e-015 -4.41391e-032 -3.18055e-015 -7.95139e-016 1.59028e-015 3.18055e-015 1.51076e-014 4.77083e-015 0 1.59028e-015 -1.59028e-015 3.18055e-015 6.36111e-015 1.59028e-015 3.18055e-015 1.51076e-014 4.77083e-015 0 1.59028e-015 -1.59028e-015 3.18055e-015 6.36111e-015 -4.41391e-032 -3.18055e-015 -7.95139e-016 1.59028e-015 3.18055e-015 1.51076e-014 4.77083e-015 0 1.59028e-015 -1.59028e-015 3.18055e-015 6.36111e-015 1.59028e-015 3.18055e-015 1.51076e-014 4.77083e-015 0 1.59028e-015 -1.59028e-015 3.18055e-015 6.36111e-015 59.5484 -43.9226 82.4148 0.563115 69.9115 4.51681 4.32837 18.2049 1.01841 -66.3969 -37.7654 -89.2608 -0.592632 69.0181 -4.58026 -5.31645 24.7011 -0.490341 
0.307296 -3.71214 -77.0465 -0 -63.0022 -0 0 2.79923 -0 0 5.59846 -0 0 5.59846 -0 0 30.9996 -0 -0.00169197 -10.3552 21.9989 -0 -1.52629e-005 -0 -74.8197 1.15231 46.745 1.83452 0.857233 -130.319 0.619313 -0.244382 0.0126191 1.32417e-031 2.38542e-015 -3.18055e-015 8.82781e-032 1.59028e-015 -3.18055e-015 -1.59028e-015 -7.95139e-016 -3.18055e-015 -1.59028e-015 5.56597e-015 -3.18055e-015 -1.59028e-015 7.95139e-016 -0 -1.59028e-015 -2.38542e-015 -3.18055e-015 1.59028e-015 -2.38542e-015 -6.36111e-015 -1.59028e-015 7.95139e-016 -0 -1.59028e-015 -2.38542e-015 -3.18055e-015 1.59028e-015 -2.38542e-015 -6.36111e-015 -1.59028e-015 5.56597e-015 -3.18055e-015 -1.59028e-015 7.95139e-016 -0 -1.59028e-015 -2.38542e-015 -3.18055e-015 1.59028e-015 -2.38542e-015 -6.36111e-015 -1.59028e-015 7.95139e-016 -0 -1.59028e-015 -2.38542e-015 -3.18055e-015 1.59028e-015 -2.38542e-015 -6.36111e-015 5.38177e-008 -3.06184e-006 10.9996 70.2887 27.0547 20.6769 -1.4236 1.1805 85.2872 61.4726 -22.6092 -9.13942 -7.95139e-016 0 -5.56597e-015 2.38542e-015 -6.36111e-015 -2.38542e-015 -3.18055e-015 -3.18055e-015 3.18055e-015 -7.95139e-016 0 -5.56597e-015 2.38542e-015 -6.36111e-015 -7.95139e-016 -7.15625e-015 -6.36111e-015 -0 1.59028e-015 0 -3.97569e-015 2.38542e-015 -6.36111e-015 -7.95139e-016 -7.15625e-015 -6.36111e-015 -0 1.59028e-015 0 -3.97569e-015 -7.95139e-016 0 -5.56597e-015 2.38542e-015 -6.36111e-015 -7.95139e-016 -7.15625e-015 -6.36111e-015 -0 1.59028e-015 0 -3.97569e-015 2.38542e-015 -6.36111e-015 -7.95139e-016 -7.15625e-015 -6.36111e-015 -0 1.59028e-015 0 -3.97569e-015 59.5495 -43.9221 82.415 0.563297 69.9108 4.54914 4.32961 18.2032 1.01807 -66.398 -37.7648 -89.2609 -0.592768 69.0174 -4.61275 -5.31806 24.6996 -0.48991 
0.307246 -3.71223 -77.0455 -0 -63.0022 -0 0 2.79923 -0 0 5.59846 -0 0 5.59846 -0 0 30.9998 -0 -0.00171202 -11.0798 21.9988 -0 -1.52629e-005 -0 -74.8197 1.15231 46.745 1.83454 0.857234 -130.319 1.23899 -0.488729 0.027889 1.59028e-015 2.8625e-014 -6.36111e-015 3.35457e-030 3.02153e-014 -6.36111e-015 3.18055e-015 2.62396e-014 -9.54166e-015 -8.82781e-032 -7.95139e-016 -6.36111e-015 -3.18055e-015 3.10104e-014 3.18055e-015 3.18055e-015 2.94201e-014 -0 3.18055e-015 3.4191e-014 -9.54166e-015 -3.18055e-015 3.10104e-014 3.18055e-015 3.18055e-015 2.94201e-014 -0 3.18055e-015 3.4191e-014 -9.54166e-015 -8.82781e-032 -7.95139e-016 -6.36111e-015 -3.18055e-015 3.10104e-014 3.18055e-015 3.18055e-015 2.94201e-014 -0 3.18055e-015 3.4191e-014 -9.54166e-015 -3.18055e-015 3.10104e-014 3.18055e-015 3.18055e-015 2.94201e-014 -0 3.18055e-015 3.4191e-014 -9.54166e-015 5.38177e-008 -3.06184e-006 10.9996 70.2887 27.0547 20.6769 -1.42361 1.1805 85.2872 61.4251 -22.5553 -7.56181 3.97569e-015 0 -7.95139e-016 1.53237e-006 2.48943e-007 -6.61942e-007 -7.95139e-016 6.36111e-015 1.59028e-015 5.56597e-015 0 7.95139e-016 7.15625e-015 6.36111e-015 -0 1.53237e-006 2.48943e-007 -6.61942e-007 3.18055e-015 -6.36111e-015 1.59028e-015 7.15625e-015 6.36111e-015 -0 1.53237e-006 2.48943e-007 -6.61942e-007 3.18055e-015 -6.36111e-015 1.59028e-015 5.56597e-015 0 7.95139e-016 7.15625e-015 6.36111e-015 -0 1.53237e-006 2.48943e-007 -6.61942e-007 3.18055e-015 -6.36111e-015 1.59028e-015 7.15625e-015 6.36111e-015 -0 1.53237e-006 2.48943e-007 -6.61942e-007 3.18055e-015 -6.36111e-015 1.59028e-015 59.5506 -43.9216 82.4152 0.563389 69.9101 4.58154 4.33089 18.2015 1.01773 -66.3991 -37.7642 -89.261 -0.592978 69.0167 -4.64515 -5.31968 24.6981 -0.489488 
0.307197 -3.71232 -77.0445 -0 -63.0022 -0 0 2.79923 -0 0 5.59846 -0 0 5.59846 -0 0 30.9998 -0 -0.00172692 -11.804 21.9988 -0 -1.52629e-005 -0 -74.8197 1.15231 46.745 1.83452 0.857234 -130.319 1.859 -0.732984 0.0458157 6.32923e-007 1.15389e-006 -1.03568e-006 -4.77083e-015 7.95139e-016 -0 -4.77083e-015 6.36111e-015 3.18055e-015 1.59028e-015 1.59028e-015 -3.18055e-015 6.32923e-007 1.15389e-006 -1.03568e-006 -1.59028e-015 -7.95139e-016 -0 -1.59028e-015 -7.95139e-016 -3.18055e-015 6.32923e-007 1.15389e-006 -1.03568e-006 -1.59028e-015 -7.95139e-016 -0 -1.59028e-015 -7.95139e-016 -3.18055e-015 1.59028e-015 1.59028e-015 -3.18055e-015 6.32923e-007 1.15389e-006 -1.03568e-006 -1.59028e-015 -7.95139e-016 -0 -1.59028e-015 -7.95139e-016 -3.18055e-015 6.32923e-007 1.15389e-006 -1.03568e-006 -1.59028e-015 -7.95139e-016 -0 -1.59028e-015 -7.95139e-016 -3.18055e-015 5.38177e-008 -3.06184e-006 10.9996 70.2887 27.0547 20.6769 -1.4236 1.1805 85.2872 61.3759 -22.5024 -5.98136 1.32006e-006 -6.20613e-007 -4.47057e-008 -1.32006e-006 6.20613e-007 4.47057e-008 1.32006e-006 -6.20613e-007 -4.47057e-008 -2.38542e-015 6.36111e-015 -7.95139e-015 1.32006e-006 -6.20613e-007 -4.47057e-008 -1.32006e-006 6.20613e-007 4.47057e-008 1.32006e-006 -6.20613e-007 -4.47057e-008 1.32006e-006 -6.20613e-007 -4.47057e-008 -1.32006e-006 6.20613e-007 4.47057e-008 1.32006e-006 -6.20613e-007 -4.47057e-008 -2.38542e-015 6.36111e-015 -7.95139e-015 1.32006e-006 -6.20613e-007 -4.47057e-008 -1.32006e-006 6.20613e-007 4.47057e-008 1.32006e-006 -6.20613e-007 -4.47057e-008 1.32006e-006 -6.20613e-007 -4.47057e-008 -1.32006e-006 6.20613e-007 4.47057e-008 1.32006e-006 -6.20613e-007 -4.47057e-008 59.5517 -43.921 82.4154 0.563503 69.9094 4.6139 4.33214 18.1998 1.0174 -66.4003 -37.7635 -89.2611 -0.593147 69.016 -4.6776 -5.32128 24.6965 -0.489067 
